<svg xmlns="http://www.w3.org/2000/svg" xmlns:xlink="http://www.w3.org/1999/xlink" contentStyleType="text/css" height="551px" preserveAspectRatio="none" style="width:557px;height:551px;background:#FFFFFF;" version="1.1" viewBox="0 0 557 551" width="557px" zoomAndPan="magnify"><defs/><g><!--cluster ?????????--><g id="cluster_&#1042;&#1077;&#1073;&#1082;&#1083;&#1080;&#1077;&#1085;&#1090;"><path d="M229.59,6 L317.3791,6 A3.75,3.75 0 0 1 319.8791,8.5 L326.8791,28.2969 L548.44,28.2969 A2.5,2.5 0 0 1 550.94,30.7969 L550.94,541.5 A2.5,2.5 0 0 1 548.44,544 L229.59,544 A2.5,2.5 0 0 1 227.09,541.5 L227.09,8.5 A2.5,2.5 0 0 1 229.59,6 " fill="none" style="stroke:#000000;stroke-width:1.5;"/><line style="stroke:#000000;stroke-width:1.5;" x1="227.09" x2="326.8791" y1="28.2969" y2="28.2969"/><text fill="#000000" font-family="sans-serif" font-size="14" font-weight="bold" lengthAdjust="spacing" textLength="86.7891" x="231.09" y="20.9951">&#1042;&#1077;&#1073;&#1082;&#1083;&#1080;&#1077;&#1085;&#1090;</text></g><g id="elem_UC2"><ellipse cx="389.0227" cy="60.0025" fill="#F1F1F1" rx="80.9627" ry="18.5925" style="stroke:#181818;stroke-width:0.5;"/><text fill="#000000" font-family="sans-serif" font-size="14" lengthAdjust="spacing" textLength="120.8457" x="327.2909" y="63.276">&#1055;&#1086;&#1083;&#1091;&#1095;&#1080;&#1090;&#1100; &#1087;&#1088;&#1086;&#1073;&#1099;</text></g><g id="elem_UC3"><ellipse cx="389.0227" cy="135.0005" fill="#F1F1F1" rx="92.6027" ry="20.9205" style="stroke:#181818;stroke-width:0.5;"/><text fill="#000000" font-family="sans-serif" font-size="14" lengthAdjust="spacing" textLength="147.6084" x="315.2185" y="137.8472">&#1055;&#1088;&#1086;&#1089;&#1084;&#1086;&#1090;&#1088;&#1077;&#1090;&#1100; &#1087;&#1088;&#1086;&#1073;&#1099;</text></g><g id="elem_UC4"><ellipse cx="389.0189" cy="217.9958" fill="#F1F1F1" rx="124.9789" ry="27.3958" style="stroke:#181818;stroke-width:0.5;"/><text fill="#000000" font-family="sans-serif" font-size="14" lengthAdjust="spacing" textLength="167.0293" x="302.5043" y="213.5949">&#1054;&#1090;&#1092;&#1080;&#1083;&#1100;&#1090;&#1088;&#1086;&#1074;&#1072;&#1090;&#1100; &#1087;&#1088;&#1086;&#1073;&#1099;</text><text fill="#000000" font-family="sans-serif" font-size="14" lengthAdjust="spacing" textLength="136.5479" x="317.745" y="229.8918">&#1087;&#1086; &#1086;&#1090;&#1074;&#1077;&#1090;&#1089;&#1090;&#1074;&#1077;&#1085;&#1085;&#1099;&#1084;</text></g><g id="elem_UC5"><ellipse cx="389.0204" cy="312.0041" fill="#F1F1F1" rx="145.9204" ry="31.5841" style="stroke:#181818;stroke-width:0.5;"/><text fill="#000000" font-family="sans-serif" font-size="14" lengthAdjust="spacing" textLength="261.9805" x="258.0302" y="314.8508">&#1053;&#1072;&#1079;&#1085;&#1072;&#1095;&#1080;&#1090;&#1100; &#1086;&#1090;&#1074;&#1077;&#1090;&#1089;&#1090;&#1074;&#1077;&#1085;&#1085;&#1099;&#1093; &#1074;&#1088;&#1091;&#1095;&#1085;&#1091;&#1102;</text></g><g id="elem_UC8"><ellipse cx="389.0189" cy="408.0038" fill="#F1F1F1" rx="135.1189" ry="29.4238" style="stroke:#181818;stroke-width:0.5;"/><text fill="#000000" font-family="sans-serif" font-size="14" lengthAdjust="spacing" textLength="194.6123" x="288.7127" y="403.6029">&#1053;&#1072;&#1079;&#1085;&#1072;&#1095;&#1080;&#1090;&#1100; &#1086;&#1090;&#1074;&#1077;&#1090;&#1089;&#1090;&#1074;&#1077;&#1085;&#1085;&#1099;&#1093;</text><text fill="#000000" font-family="sans-serif" font-size="14" lengthAdjust="spacing" textLength="112.082" x="329.9778" y="419.8998">&#1072;&#1074;&#1090;&#1086;&#1084;&#1072;&#1090;&#1080;&#1095;&#1077;&#1089;&#1082;&#1080;</text></g><g id="elem_UC9"><ellipse cx="389.0219" cy="500.0044" fill="#F1F1F1" rx="127.0219" ry="27.8044" style="stroke:#181818;stroke-width:0.5;"/><text fill="#000000" font-family="sans-serif" font-size="14" lengthAdjust="spacing" textLength="172.7441" x="299.6498" y="495.6035">&#1055;&#1086;&#1083;&#1091;&#1095;&#1080;&#1090;&#1100; &#1091;&#1074;&#1077;&#1076;&#1086;&#1084;&#1083;&#1077;&#1085;&#1080;&#1103;</text><text fill="#000000" font-family="sans-serif" font-size="14" lengthAdjust="spacing" textLength="154.8477" x="308.5981" y="511.9004">&#1086; &#1074;&#1099;&#1087;&#1086;&#1083;&#1085;&#1077;&#1085;&#1080;&#1080; &#1087;&#1088;&#1086;&#1073;&#1099;</text></g><!--entity act--><g id="elem_act"><ellipse cx="64.0474" cy="243.35" fill="#F1F1F1" rx="8" ry="8" style="stroke:#181818;stroke-width:0.5;"/><path d="M64.0474,251.35 L64.0474,278.35 M51.0474,259.35 L77.0474,259.35 M64.0474,278.35 L51.0474,293.35 M64.0474,278.35 L77.0474,293.35 " fill="none" style="stroke:#181818;stroke-width:0.5;"/><text fill="#000000" font-family="sans-serif" font-size="14" lengthAdjust="spacing" textLength="116.0947" x="6" y="307.8451">&#1040;&#1076;&#1084;&#1080;&#1085;&#1080;&#1089;&#1090;&#1088;&#1072;&#1090;&#1086;&#1088;</text></g><!--link act to UC2--><g id="link_act_UC2"><path d="M87.98,234.64 C114.38,193.96 161.59,130.98 219.09,97 C247.14,80.43 275.8308,72.2414 306.4108,67.1714 " fill="none" id="act-to-UC2" style="stroke:#181818;stroke-width:1;"/><polygon fill="#181818" points="312.33,66.19,302.797,63.7159,307.3973,67.0078,304.1054,71.6082,312.33,66.19" style="stroke:#181818;stroke-width:1;"/></g><!--link act to UC3--><g id="link_act_UC3"><path d="M114.54,234.38 C143.57,213.45 181.77,188.71 219.09,173 C247.91,160.87 275.3064,153.4963 304.6664,147.6263 " fill="none" id="act-to-UC3" style="stroke:#181818;stroke-width:1;"/><polygon fill="#181818" points="310.55,146.45,300.9405,144.2921,305.647,147.4303,302.5089,152.1368,310.55,146.45" style="stroke:#181818;stroke-width:1;"/></g><!--link act to UC4--><g id="link_act_UC4"><path d="M122.42,263.23 C168.55,255.37 228.5252,245.1573 283.1352,235.8573 " fill="none" id="act-to-UC4" style="stroke:#181818;stroke-width:1;"/><polygon fill="#181818" points="289.05,234.85,279.5062,232.4177,284.121,235.6894,280.8493,240.3042,289.05,234.85" style="stroke:#181818;stroke-width:1;"/></g><!--link act to UC5--><g id="link_act_UC5"><path d="M122.42,279.93 C160.75,284.56 206.7834,290.11 254.6034,295.89 " fill="none" id="act-to-UC5" style="stroke:#181818;stroke-width:1;"/><polygon fill="#181818" points="260.56,296.61,252.105,291.5589,255.5961,296.01,251.145,299.5011,260.56,296.61" style="stroke:#181818;stroke-width:1;"/></g><!--link act to UC8--><g id="link_act_UC8"><path d="M122.56,310.39 C150.8,327.55 185.84,347.13 219.09,361 C243.12,371.02 264.1493,377.9828 289.2193,384.9528 " fill="none" id="act-to-UC8" style="stroke:#181818;stroke-width:1;"/><polygon fill="#181818" points="295,386.56,287.4003,380.2954,290.1827,385.2207,285.2574,388.0031,295,386.56" style="stroke:#181818;stroke-width:1;"/></g><!--link act to UC9--><g id="link_act_UC9"><path d="M87.49,311.41 C113.78,353.03 161.21,418.35 219.09,455 C239.22,467.74 257.1186,475.2596 280.2686,481.8396 " fill="none" id="act-to-UC9" style="stroke:#181818;stroke-width:1;"/><polygon fill="#181818" points="286.04,483.48,278.4765,477.1718,281.2305,482.113,276.2893,484.867,286.04,483.48" style="stroke:#181818;stroke-width:1;"/></g><!--SRC=[bPB1IiD048Rl-nH3xhdO5jgB5v_11mWnrg0OIU99X2HLFBIeU5TV8GqDXgP9N-6VDt9s8vY02bwMdTt__vZvTo-yqvZYW49_VXRJYHzwRkm7bqevRXo4PE4P6-nGeK75AMUS8ESCBISMEH69IbqvxhapzqJxWX9hR56BlaJ3cKKtYkWwybmdykZuw41xBBoZHSqBVX1cnYl2Nh0jrhoq1lBHbrpVSYfjjAQ1ya_Jk3EzYUXE-gXvPKmj2jtvmAXaZvOqLcurDkrsCct3I-o6v4b7VaME3r7at_t_0k1xGi69cRIHzN78c_wVfqHRwFmb3FqEbNXAYMQBQiYU_PmqBmnjOm2ruLRyf7G8XGoyrt8vC-Ue1XdVcZz1jcqVwfVi5wD-CUuNatunxHUpJm00]--></g></svg>