<svg xmlns="http://www.w3.org/2000/svg" xmlns:xlink="http://www.w3.org/1999/xlink" contentStyleType="text/css" height="410px" preserveAspectRatio="none" style="width:1039px;height:410px;background:#FFFFFF;" version="1.1" viewBox="0 0 1039 410" width="1039px" zoomAndPan="magnify"><defs/><g><!--cluster ?????????--><g id="cluster_&#1042;&#1077;&#1073;&#1082;&#1083;&#1080;&#1077;&#1085;&#1090;"><path d="M233.59,6 L321.3791,6 A3.75,3.75 0 0 1 323.8791,8.5 L330.8791,28.2969 L1029.68,28.2969 A2.5,2.5 0 0 1 1032.18,30.7969 L1032.18,400.5 A2.5,2.5 0 0 1 1029.68,403 L233.59,403 A2.5,2.5 0 0 1 231.09,400.5 L231.09,8.5 A2.5,2.5 0 0 1 233.59,6 " fill="none" style="stroke:#000000;stroke-width:1.5;"/><line style="stroke:#000000;stroke-width:1.5;" x1="231.09" x2="330.8791" y1="28.2969" y2="28.2969"/><text fill="#000000" font-family="sans-serif" font-size="14" font-weight="bold" lengthAdjust="spacing" textLength="86.7891" x="235.09" y="20.9951">&#1042;&#1077;&#1073;&#1082;&#1083;&#1080;&#1077;&#1085;&#1090;</text></g><g id="elem_UC1"><ellipse cx="405.6208" cy="67.9962" fill="#F1F1F1" rx="124.6808" ry="27.3362" style="stroke:#181818;stroke-width:0.5;"/><text fill="#000000" font-family="sans-serif" font-size="14" lengthAdjust="spacing" textLength="217.3145" x="296.9635" y="70.8428">&#1057;&#1086;&#1079;&#1076;&#1072;&#1090;&#1100; &#1087;&#1088;&#1072;&#1074;&#1080;&#1083;&#1072; &#1085;&#1072;&#1079;&#1085;&#1072;&#1095;&#1077;&#1085;&#1080;&#1103;</text></g><g id="elem_UC2"><ellipse cx="405.6194" cy="163.9959" fill="#F1F1F1" rx="158.5294" ry="34.1059" style="stroke:#181818;stroke-width:0.5;"/><text fill="#000000" font-family="sans-serif" font-size="14" lengthAdjust="spacing" textLength="288.1963" x="261.5212" y="166.8425">&#1054;&#1090;&#1088;&#1077;&#1076;&#1072;&#1082;&#1090;&#1080;&#1088;&#1086;&#1074;&#1072;&#1090;&#1100; &#1087;&#1088;&#1072;&#1074;&#1080;&#1083;&#1072; &#1085;&#1072;&#1079;&#1085;&#1072;&#1095;&#1077;&#1085;&#1080;&#1103;</text></g><g id="elem_UC3"><ellipse cx="405.6244" cy="261.0009" fill="#F1F1F1" rx="125.0544" ry="27.4109" style="stroke:#181818;stroke-width:0.5;"/><text fill="#000000" font-family="sans-serif" font-size="14" lengthAdjust="spacing" textLength="218.1074" x="296.5707" y="263.8476">&#1059;&#1076;&#1072;&#1083;&#1080;&#1090;&#1100; &#1087;&#1088;&#1072;&#1074;&#1080;&#1083;&#1072; &#1085;&#1072;&#1079;&#1085;&#1072;&#1095;&#1077;&#1085;&#1080;&#1103;</text></g><g id="elem_UC4"><ellipse cx="858.6736" cy="210.0027" fill="#F1F1F1" rx="157.5136" ry="33.9027" style="stroke:#181818;stroke-width:0.5;"/><text fill="#000000" font-family="sans-serif" font-size="14" lengthAdjust="spacing" textLength="286.0908" x="715.6282" y="212.8494">&#1054;&#1090;&#1088;&#1077;&#1076;&#1072;&#1082;&#1090;&#1080;&#1088;&#1086;&#1074;&#1072;&#1090;&#1100; &#1072;&#1082;&#1090;&#1080;&#1074;&#1085;&#1086;&#1089;&#1090;&#1100; &#1087;&#1088;&#1072;&#1074;&#1080;&#1083;&#1072;</text></g><g id="elem_UC6"><ellipse cx="858.6727" cy="107.9985" fill="#F1F1F1" rx="154.7427" ry="33.3485" style="stroke:#181818;stroke-width:0.5;"/><text fill="#000000" font-family="sans-serif" font-size="14" lengthAdjust="spacing" textLength="280.3418" x="718.5018" y="110.8452">&#1054;&#1090;&#1088;&#1077;&#1076;&#1072;&#1082;&#1090;&#1080;&#1088;&#1086;&#1074;&#1072;&#1090;&#1100; &#1087;&#1088;&#1080;&#1086;&#1088;&#1080;&#1090;&#1077;&#1090; &#1087;&#1088;&#1072;&#1074;&#1080;&#1083;&#1072;</text></g><g id="elem_UC7"><ellipse cx="405.6198" cy="354.996" fill="#F1F1F1" rx="147.8298" ry="31.966" style="stroke:#181818;stroke-width:0.5;"/><text fill="#000000" font-family="sans-serif" font-size="14" lengthAdjust="spacing" textLength="185.9512" x="312.6442" y="349.6942">&#1055;&#1086;&#1083;&#1091;&#1095;&#1080;&#1090;&#1100; &#1091;&#1074;&#1077;&#1076;&#1086;&#1084;&#1083;&#1077;&#1085;&#1080;&#1077; &#1086;</text><text fill="#000000" font-family="sans-serif" font-size="14" lengthAdjust="spacing" textLength="227.4658" x="291.8869" y="365.9911">&#1085;&#1072;&#1079;&#1085;&#1072;&#1095;&#1077;&#1085;&#1080;&#1080; &#1087;&#1088;&#1086;&#1073;&#1099; &#1087;&#1086; &#1087;&#1088;&#1072;&#1074;&#1083;&#1072;&#1084;</text></g><!--entity act--><g id="elem_act"><ellipse cx="64.0474" cy="190.35" fill="#F1F1F1" rx="8" ry="8" style="stroke:#181818;stroke-width:0.5;"/><path d="M64.0474,198.35 L64.0474,225.35 M51.0474,206.35 L77.0474,206.35 M64.0474,225.35 L51.0474,240.35 M64.0474,225.35 L77.0474,240.35 " fill="none" style="stroke:#181818;stroke-width:0.5;"/><text fill="#000000" font-family="sans-serif" font-size="14" lengthAdjust="spacing" textLength="116.0947" x="6" y="254.8451">&#1040;&#1076;&#1084;&#1080;&#1085;&#1080;&#1089;&#1090;&#1088;&#1072;&#1090;&#1086;&#1088;</text></g><!--link act to UC1--><g id="link_act_UC1"><path d="M111.48,181.61 C141.63,158.42 182.71,129.97 223.09,112 C249.32,100.33 273.2628,92.8683 301.0128,86.2683 " fill="none" id="act-to-UC1" style="stroke:#181818;stroke-width:1;"/><polygon fill="#181818" points="306.85,84.88,297.1687,83.071,301.9857,86.0369,299.0198,90.8539,306.85,84.88" style="stroke:#181818;stroke-width:1;"/></g><!--link act to UC2--><g id="link_act_UC2"><path d="M122.16,210.08 C132.13,208.37 142.41,206.62 152.09,205 C192.84,198.18 231.3773,191.8698 271.4873,185.3698 " fill="none" id="act-to-UC2" style="stroke:#181818;stroke-width:1;"/><polygon fill="#181818" points="277.41,184.41,267.886,181.9012,272.4744,185.2098,269.1658,189.7982,277.41,184.41" style="stroke:#181818;stroke-width:1;"/></g><!--link act to UC3--><g id="link_act_UC3"><path d="M122.27,226.91 C169.43,232.6 231.7234,240.12 289.3034,247.08 " fill="none" id="act-to-UC3" style="stroke:#181818;stroke-width:1;"/><polygon fill="#181818" points="295.26,247.8,286.805,242.7489,290.2961,247.2,285.845,250.6911,295.26,247.8" style="stroke:#181818;stroke-width:1;"/></g><!--link act to UC7--><g id="link_act_UC7"><path d="M122.38,255.44 C151.7,272.46 188.44,292.12 223.09,306 C248.09,316.01 270.0418,323.08 296.1618,330.21 " fill="none" id="act-to-UC7" style="stroke:#181818;stroke-width:1;"/><polygon fill="#181818" points="301.95,331.79,294.321,325.5612,297.1265,330.4733,292.2143,333.2788,301.95,331.79" style="stroke:#181818;stroke-width:1;"/></g><!--reverse link UC2 to UC4--><g id="link_UC2_UC4"><path d="M543.5996,183.9963 C562.5296,186.4663 575.85,188.04 594.15,190 C630.76,193.92 670.31,197.35 707.37,200.21 " fill="none" id="UC2-backto-UC4" style="stroke:#181818;stroke-width:1;stroke-dasharray:7.0,7.0;"/><polygon fill="#181818" points="537.65,183.22,546.0568,188.3508,542.608,183.8669,547.0919,180.4181,537.65,183.22" style="stroke:#181818;stroke-width:1;"/><text fill="#000000" font-family="sans-serif" font-size="13" lengthAdjust="spacing" textLength="75.353" x="595.15" y="186.0669">&#1088;&#1072;&#1089;&#1096;&#1080;&#1088;&#1103;&#1077;&#1090;</text></g><!--reverse link UC2 to UC6--><g id="link_UC2_UC6"><path d="M549.7442,146.2303 C606.8942,139.1303 667.08,131.66 723.87,124.61 " fill="none" id="UC2-backto-UC6" style="stroke:#181818;stroke-width:1;stroke-dasharray:7.0,7.0;"/><polygon fill="#181818" points="543.79,146.97,553.2145,149.8299,548.7519,146.3536,552.2282,141.8909,543.79,146.97" style="stroke:#181818;stroke-width:1;"/><text fill="#000000" font-family="sans-serif" font-size="13" lengthAdjust="spacing" textLength="75.353" x="595.15" y="129.0669">&#1088;&#1072;&#1089;&#1096;&#1080;&#1088;&#1103;&#1077;&#1090;</text></g><!--SRC=[dP9HIiD048RVznJ3lgTWAos8-E8PF428iGR5I1AVH6ZI1mM5YWTGn0kaOZ0qJRp2FpToDYkIOf7Ibv3PcVt- -NVct3z9A0af2iQd2Hq7aUybGNYXbEibOKGQZ_Z04YLgb9nonXFadA7XYIOt9gbIwjBrpjonByLFA3370fLSA51pfkbQ4Lt5lkV6FXqTxfXB6gzey2bWGV43uSjGyIwNAkGaKhbavSktXYB2Cxr2wLlASzjEOJXOI5EbH8rWjgGEBFMjvOc3xIYx6_NsSoW7jRnbkaPgbJhSs75fPcEQHy7PlyoHPRu8eUAf-B6EUIhbHgAHkLVM90f2G-glUvHMei6Sx-LNgdubHH1BhMxQNIB7SGxC0dI3VZSOT8EHKcRC-xsUUT8zQjSkvJlZc6V6MYS_N9V_1W00]--></g></svg>