<svg xmlns="http://www.w3.org/2000/svg" xmlns:xlink="http://www.w3.org/1999/xlink" contentStyleType="text/css" height="456px" preserveAspectRatio="none" style="width:897px;height:456px;background:#FFFFFF;" version="1.1" viewBox="0 0 897 456" width="897px" zoomAndPan="magnify"><defs/><g><!--cluster ?????????--><g id="cluster_&#1042;&#1077;&#1073;&#1082;&#1083;&#1080;&#1077;&#1085;&#1090;"><path d="M90.84,6 L178.6291,6 A3.75,3.75 0 0 1 181.1291,8.5 L188.1291,28.2969 L888.35,28.2969 A2.5,2.5 0 0 1 890.85,30.7969 L890.85,446.5 A2.5,2.5 0 0 1 888.35,449 L90.84,449 A2.5,2.5 0 0 1 88.34,446.5 L88.34,8.5 A2.5,2.5 0 0 1 90.84,6 " fill="none" style="stroke:#000000;stroke-width:1.5;"/><line style="stroke:#000000;stroke-width:1.5;" x1="88.34" x2="188.1291" y1="28.2969" y2="28.2969"/><text fill="#000000" font-family="sans-serif" font-size="14" font-weight="bold" lengthAdjust="spacing" textLength="86.7891" x="92.34" y="20.9951">&#1042;&#1077;&#1073;&#1082;&#1083;&#1080;&#1077;&#1085;&#1090;</text></g><g id="elem_UC2"><ellipse cx="282.3045" cy="144.0009" fill="#F1F1F1" rx="177.9545" ry="37.9909" style="stroke:#181818;stroke-width:0.5;"/><text fill="#000000" font-family="sans-serif" font-size="14" lengthAdjust="spacing" textLength="328.2891" x="118.16" y="146.8476">&#1055;&#1086;&#1083;&#1091;&#1095;&#1080;&#1090;&#1100; &#1091;&#1074;&#1077;&#1076;&#1086;&#1084;&#1083;&#1077;&#1085;&#1080;&#1077; &#1086; &#1085;&#1072;&#1079;&#1085;&#1072;&#1095;&#1077;&#1085;&#1080;&#1080; &#1087;&#1088;&#1086;&#1073;&#1099;</text></g><g id="elem_UC3"><ellipse cx="282.3006" cy="243.9981" fill="#F1F1F1" rx="124.5906" ry="27.3181" style="stroke:#181818;stroke-width:0.5;"/><text fill="#000000" font-family="sans-serif" font-size="14" lengthAdjust="spacing" textLength="217.123" x="173.7391" y="246.8448">&#1042;&#1072;&#1083;&#1080;&#1076;&#1080;&#1088;&#1086;&#1074;&#1072;&#1090;&#1100; &#1076;&#1072;&#1085;&#1085;&#1099;&#1077; &#1087;&#1088;&#1086;&#1073;&#1099;</text></g><g id="elem_UC4"><ellipse cx="736.0523" cy="406.9965" fill="#F1F1F1" rx="116.2823" ry="25.6565" style="stroke:#181818;stroke-width:0.5;"/><text fill="#000000" font-family="sans-serif" font-size="14" lengthAdjust="spacing" textLength="199.4043" x="636.3501" y="409.8431">&#1055;&#1086;&#1089;&#1084;&#1086;&#1090;&#1088;&#1077;&#1090;&#1100; &#1076;&#1072;&#1085;&#1085;&#1099;&#1077; &#1087;&#1088;&#1086;&#1073;&#1099;</text></g><g id="elem_UC5"><ellipse cx="736.0483" cy="327.0017" fill="#F1F1F1" rx="83.1583" ry="19.0317" style="stroke:#181818;stroke-width:0.5;"/><text fill="#000000" font-family="sans-serif" font-size="14" lengthAdjust="spacing" textLength="126.0479" x="672.4848" y="330.0312">&#1055;&#1088;&#1086;&#1074;&#1077;&#1089;&#1090;&#1080; &#1072;&#1085;&#1072;&#1083;&#1080;&#1079;</text></g><g id="elem_UC6"><ellipse cx="736.0494" cy="244.0019" fill="#F1F1F1" rx="134.7094" ry="29.3419" style="stroke:#181818;stroke-width:0.5;"/><text fill="#000000" font-family="sans-serif" font-size="14" lengthAdjust="spacing" textLength="238.499" x="616.7999" y="246.8486">&#1055;&#1077;&#1088;&#1077;&#1074;&#1077;&#1089;&#1090;&#1080; &#1074; &#1089;&#1090;&#1072;&#1090;&#1091;&#1089; &#1079;&#1072;&#1074;&#1077;&#1088;&#1096;&#1077;&#1085;&#1080;&#1103;</text></g><g id="elem_UC7"><ellipse cx="736.0497" cy="157.9999" fill="#F1F1F1" rx="96.2497" ry="21.6499" style="stroke:#181818;stroke-width:0.5;"/><text fill="#000000" font-family="sans-serif" font-size="14" lengthAdjust="spacing" textLength="155.7568" x="658.1713" y="160.8466">&#1057;&#1092;&#1086;&#1088;&#1084;&#1080;&#1088;&#1086;&#1074;&#1072;&#1090;&#1100; &#1086;&#1090;&#1095;&#1077;&#1090;</text></g><g id="elem_UC8"><ellipse cx="736.0481" cy="70.9996" fill="#F1F1F1" rx="138.7981" ry="30.1596" style="stroke:#181818;stroke-width:0.5;"/><text fill="#000000" font-family="sans-serif" font-size="14" lengthAdjust="spacing" textLength="199.7598" x="630.9431" y="66.5987">&#1053;&#1072;&#1079;&#1085;&#1072;&#1095;&#1080;&#1090;&#1100; &#1086;&#1090;&#1074;&#1077;&#1090;&#1089;&#1090;&#1074;&#1077;&#1085;&#1085;&#1086;&#1075;&#1086;</text><text fill="#000000" font-family="sans-serif" font-size="14" lengthAdjust="spacing" textLength="124.6738" x="670.7112" y="82.8956">&#1040;&#1076;&#1084;&#1080;&#1085;&#1080;&#1089;&#1090;&#1088;&#1072;&#1090;&#1086;&#1088;&#1072;</text></g><!--entity doctor--><g id="elem_doctor"><ellipse cx="23.6709" cy="165.35" fill="#F1F1F1" rx="8" ry="8" style="stroke:#181818;stroke-width:0.5;"/><path d="M23.6709,173.35 L23.6709,200.35 M10.6709,181.35 L36.6709,181.35 M23.6709,200.35 L10.6709,215.35 M23.6709,200.35 L36.6709,215.35 " fill="none" style="stroke:#181818;stroke-width:0.5;"/><text fill="#000000" font-family="sans-serif" font-size="14" lengthAdjust="spacing" textLength="35.3418" x="6" y="229.8451">&#1042;&#1088;&#1072;&#1095;</text></g><!--link doctor to UC2--><g id="link_doctor_UC2"><path d="M41.83,189.33 C50.59,186.57 61.46,183.34 71.34,181 C93.04,175.85 116.15,171.08 138.81,166.79 " fill="none" id="doctor-UC2" style="stroke:#181818;stroke-width:1;"/></g><!--link doctor to UC3--><g id="link_doctor_UC3"><path d="M41.51,198.22 C70.84,203.81 133.3,215.74 187.13,226.02 " fill="none" id="doctor-UC3" style="stroke:#181818;stroke-width:1;"/></g><!--link UC3 to UC4--><g id="link_UC3_UC4"><path d="M343.36,268.25 C406.25,293.33 508.08,333.08 597.25,364 C619.27,371.64 637.7491,377.6232 659.6491,384.4132 " fill="none" id="UC3-to-UC4" style="stroke:#181818;stroke-width:1;stroke-dasharray:7.0,7.0;"/><polygon fill="#181818" points="665.38,386.19,657.9682,379.7042,660.6043,384.7093,655.5991,387.3453,665.38,386.19" style="stroke:#181818;stroke-width:1;"/><text fill="#000000" font-family="sans-serif" font-size="13" lengthAdjust="spacing" textLength="65.9839" x="496.25" y="323.0669">&#1074;&#1082;&#1083;&#1102;&#1095;&#1072;&#1077;&#1090;</text></g><!--link UC3 to UC5--><g id="link_UC3_UC5"><path d="M379.1,261.6 C466.64,277.69 587.8288,299.9559 664.0888,313.9659 " fill="none" id="UC3-to-UC5" style="stroke:#181818;stroke-width:1;stroke-dasharray:7.0,7.0;"/><polygon fill="#181818" points="669.99,315.05,661.8609,309.4896,665.0723,314.1466,660.4154,317.358,669.99,315.05" style="stroke:#181818;stroke-width:1;"/><text fill="#000000" font-family="sans-serif" font-size="13" lengthAdjust="spacing" textLength="65.9839" x="496.25" y="280.0669">&#1074;&#1082;&#1083;&#1102;&#1095;&#1072;&#1077;&#1090;</text></g><!--link UC3 to UC6--><g id="link_UC3_UC6"><path d="M407.34,244 C467.41,244 533.65,244 594.99,244 " fill="none" id="UC3-to-UC6" style="stroke:#181818;stroke-width:1;stroke-dasharray:7.0,7.0;"/><polygon fill="#181818" points="600.99,244,591.99,240,595.99,244,591.99,248,600.99,244" style="stroke:#181818;stroke-width:1;"/><text fill="#000000" font-family="sans-serif" font-size="13" lengthAdjust="spacing" textLength="65.9839" x="496.25" y="240.0669">&#1074;&#1082;&#1083;&#1102;&#1095;&#1072;&#1077;&#1090;</text></g><!--reverse link UC3 to UC7--><g id="link_UC3_UC7"><path d="M383.6142,224.8984 C468.0642,208.8284 584.23,186.71 661.58,171.99 " fill="none" id="UC3-backto-UC7" style="stroke:#181818;stroke-width:1;stroke-dasharray:7.0,7.0;"/><polygon fill="#181818" points="377.72,226.02,387.3091,228.2671,382.6319,225.0853,385.8136,220.4081,377.72,226.02" style="stroke:#181818;stroke-width:1;"/><text fill="#000000" font-family="sans-serif" font-size="13" lengthAdjust="spacing" textLength="75.353" x="491.25" y="187.0669">&#1088;&#1072;&#1089;&#1096;&#1080;&#1088;&#1103;&#1077;&#1090;</text></g><!--reverse link UC3 to UC8--><g id="link_UC3_UC8"><path d="M391.8752,227.0536 C417.2952,220.4136 437.83,212.47 460.25,199 C477.24,188.79 474.16,177.57 490.25,166 C532.42,135.68 548.91,138 597.25,119 C617.06,111.21 638.7,103.37 658.84,96.34 " fill="none" id="UC3-backto-UC8" style="stroke:#181818;stroke-width:1;stroke-dasharray:7.0,7.0;"/><polygon fill="#181818" points="386.07,228.57,395.7888,230.1656,390.9077,227.3063,393.7669,222.4253,386.07,228.57" style="stroke:#181818;stroke-width:1;"/><text fill="#000000" font-family="sans-serif" font-size="13" lengthAdjust="spacing" textLength="75.353" x="491.25" y="126.0669">&#1088;&#1072;&#1089;&#1096;&#1080;&#1088;&#1103;&#1077;&#1090;</text></g><!--SRC=[ZLBDJi904BxlKqnwfmSH9CHuyHcyUMbAHQAX1kh9cBJ511EC6Ex6-0PBfQ4HgAymyqRER95G8iPBCvtPxsU-tMll8e30XrwdVHb0gzFptA3ZTvLotC3lWOKJ2b7Jq0Ad3orVckh6SQ-SjWSumHId-8aBpBXQKGnt2k2sxxbEtuEpqmC1MVY6EIveG4FCAAOde04cV7x6xILZ6Ibum1ouqZYNBnyk-XdW5rl8SKeZgyHUBTWd3143CsQNSmc3HOKRcXbMD1BkFHo76uSKiPcSaI6c_yVNrlYrSaeHnM9Pcqt4rhmCgFy8fYAq3Kd0L69-G15m3DgCGteieg1ncUgee7gd1_OTilkT_MMPeInJXZKAsEjMqja6O1HZOoGngYjc_E2REU_Y2oV28iPAP89Y8IEjBNMlLF4we5AHco_zLPNSbcsVIE9DNbNU33spiXQvhMdjpsbzp_JOjYMF9XXF4GV6KT1uPzxuRVuD]--></g></svg>